<svg width="52" height="47" viewBox="0 0 52 47" fill="none" xmlns="http://www.w3.org/2000/svg">
<mask id="path-1-outside-1_2_547" maskUnits="userSpaceOnUse" x="0" y="0" width="52" height="47" fill="black">
<rect fill="white" width="52" height="47"/>
<path d="M25.651 1.21544C25.3767 1.48965 23.6629 4.55494 23.4083 5.24047C23.1243 5.97496 23.0753 7.07181 23.281 7.85527C23.3691 8.20783 23.4573 8.55059 23.4573 8.61914C23.4671 8.69749 23.1439 8.88356 22.6444 9.06963C20.7347 9.80413 19.3343 10.6757 17.9535 12.0076C16.7978 13.1338 16.1907 13.9369 15.6422 15.0533C15.0253 16.346 14.8588 17.0609 14.8686 18.5789C14.8686 20.0675 15.0546 20.8999 15.6912 22.1534C15.9067 22.5843 16.0829 22.9565 16.0829 22.9858C16.0829 23.0152 15.7108 23.0348 15.2505 23.0348C14.0362 23.0348 14.0264 23.0446 14.0264 24.8466V26.2666H12.5084H10.9904V24.0631V21.8596H11.9208C13.3115 21.8596 13.2429 22.0065 13.2429 19.1371C13.2429 16.2383 13.3604 16.4342 11.6368 16.395L10.442 16.3558L10.7162 15.5626C11.1276 14.3384 11.059 13.2709 10.5008 12.1643C10.3833 11.9195 9.73691 11.1752 9.07097 10.4995L7.8664 9.27529L7.83702 7.94341C7.80764 6.7878 7.77826 6.57235 7.62157 6.39608C7.39633 6.15125 7.00459 6.13166 6.701 6.34711C6.49535 6.48421 6.48555 6.56256 6.48555 7.82589V9.16756L5.23202 10.4407C3.87075 11.8313 3.56716 12.3112 3.35171 13.408C3.18523 14.2601 3.32233 15.1317 3.78261 16.1991C3.85117 16.346 3.73365 16.3656 2.61722 16.395C0.893604 16.4342 1.00133 16.2579 1.00133 19.1567C1.00133 21.4091 1.00133 21.4385 1.22657 21.6442C1.42244 21.8302 1.56934 21.8596 2.3528 21.8596H3.25378L3.27337 33.7584C3.30274 45.0207 3.31254 45.6572 3.47902 45.8237C3.64551 45.9902 4.68359 46 26.0721 46C47.4605 46 48.4986 45.9902 48.6651 45.8237C48.8316 45.6572 48.8414 45.0207 48.8708 33.7584L48.8903 21.8596H49.8011C51.1918 21.8596 51.1428 21.9576 51.1428 19.1469C51.1428 16.2579 51.2505 16.4342 49.5269 16.395C48.4105 16.3656 48.293 16.346 48.3615 16.1991C48.8218 15.1317 48.9589 14.2601 48.7924 13.408C48.577 12.3112 48.2734 11.8313 46.9121 10.4407L45.6586 9.16756V7.82589C45.6586 6.56256 45.6488 6.48421 45.4431 6.34711C45.1395 6.13166 44.7478 6.15125 44.5226 6.39608C44.3659 6.57235 44.3365 6.7878 44.3071 7.94341L44.2777 9.27529L43.0732 10.4995C42.4072 11.1752 41.7609 11.9195 41.6433 12.1643C41.0264 13.3787 41.0068 14.6616 41.5748 16.0033L41.7217 16.3558L40.5171 16.395C38.7837 16.4342 38.9012 16.2383 38.9012 19.1371C38.9012 22.0065 38.8327 21.8596 40.2233 21.8596H41.1537V24.0631V26.2666H39.6357H38.1178V24.8466C38.1178 23.0446 38.108 23.0348 36.8936 23.0348C36.4333 23.0348 36.0612 23.0152 36.0612 22.9858C36.0612 22.9565 36.2375 22.5745 36.4627 22.1436C37.0699 20.9195 37.2658 20.087 37.2755 18.5789C37.2755 17.0609 37.1189 16.346 36.5019 15.0533C35.9535 13.9369 35.3463 13.1338 34.1907 12.0076C32.8098 10.6757 31.2429 9.6964 29.4116 9.02067C28.9611 8.86398 28.6771 8.69749 28.6869 8.61914C28.6869 8.55059 28.775 8.20783 28.8631 7.85527C29.0688 7.07181 29.0198 5.97496 28.7358 5.24047C28.4812 4.55494 26.7674 1.48965 26.4932 1.21544C26.3757 1.09792 26.1896 0.999992 26.0721 0.999992C25.9643 0.999992 25.7685 1.09792 25.651 1.21544ZM26.7772 4.35908C27.4823 5.66158 27.639 6.10228 27.639 6.7878C27.639 7.2383 27.3941 8.247 27.2766 8.247C27.2473 8.247 26.9632 8.14907 26.6401 8.04134L26.0721 7.82589L25.5236 8.04134C25.22 8.14907 24.936 8.247 24.8871 8.247C24.7598 8.247 24.5051 7.28726 24.5051 6.7878C24.5051 6.54297 24.5541 6.16104 24.6129 5.94558C24.7206 5.56365 25.9741 3.15451 26.0721 3.15451C26.1014 3.15451 26.4148 3.69314 26.7772 4.35908ZM27.9524 9.97061C28.9415 10.3232 30.0971 10.7932 30.528 11.0185C32.5944 12.0957 34.6412 14.123 35.3659 15.827C35.973 17.2176 36.0906 19.0588 35.6792 20.3906C35.4148 21.2622 35.0819 21.938 34.6216 22.5647L34.2788 23.0348H26.0721H17.8653L17.5128 22.5549C16.1613 20.7138 15.8381 18.2753 16.6705 16.1208C17.3757 14.2601 19.3735 12.1937 21.5574 11.0479C22.2331 10.6953 25.7685 9.33405 26.0427 9.32426C26.1112 9.32426 26.973 9.61806 27.9524 9.97061ZM9.4725 13.2905C9.68795 14.025 9.62919 14.6322 9.24725 15.5919L8.95345 16.3264L7.1417 16.3558L5.32995 16.3754L5.00677 15.5724C4.76194 14.9652 4.6738 14.6028 4.6738 14.1719C4.6738 13.1828 4.90884 12.7421 6.08403 11.5473L7.12211 10.4897L8.21896 11.6061C9.19828 12.605 9.3256 12.7813 9.4725 13.2905ZM47.2451 12.9869C47.578 13.7606 47.5487 14.5637 47.1374 15.5724L46.8142 16.3754L44.9926 16.3558L43.1809 16.3264L42.8577 15.494C42.4856 14.5539 42.4464 14.025 42.6814 13.2318C42.8185 12.7715 42.985 12.556 43.9252 11.5963L45.0122 10.4995L46.0209 11.4984C46.7162 12.1839 47.0884 12.6442 47.2451 12.9869ZM11.8718 19.1175V20.4886H7.12211H2.37239V19.1175V17.7465H7.12211H11.8718V19.1175ZM49.7717 19.1175V20.4886H45.022H40.2723V19.1175V17.7465H45.022H49.7717V19.1175ZM9.61939 33.2688V44.6779H7.12211H4.62483V33.2688V21.8596H7.12211H9.61939V33.2688ZM47.5193 33.2688V44.6779H45.022H42.5247V33.2688V21.8596H45.022H47.5193V33.2688ZM36.7467 25.3362V26.2666H26.0721H15.3974V25.3362V24.4059H26.0721H36.7467V25.3362ZM41.1537 36.1578V44.6779H40.5269H39.8903L39.861 41.5734C39.8218 38.6551 39.8022 38.42 39.6063 37.8814C39.2734 36.9902 38.8914 36.4712 37.7358 35.3449C36.3256 33.9641 36.3648 33.9739 34.9937 35.2568C33.8479 36.3145 33.3191 37.0588 33.0057 38.0087C32.8196 38.5963 32.8 38.9391 32.7511 41.6616L32.7119 44.6779H31.8403H30.9785L30.9491 40.1436C30.9001 35.0903 30.9099 35.1197 30.1852 33.6605C29.9796 33.2296 29.6172 32.6518 29.392 32.3874C28.7946 31.6627 26.454 29.4984 26.1896 29.4396C25.9056 29.3613 25.7587 29.469 24.3387 30.8009C22.8403 32.2013 22.4388 32.6812 21.9589 33.6605C21.2342 35.1197 21.244 35.0903 21.195 40.1436L21.1656 44.6779H20.3038H19.4322L19.3931 41.6616C19.3441 38.9391 19.3245 38.5963 19.1384 38.0087C18.8251 37.0588 18.2962 36.3145 17.1504 35.2568C15.7696 33.9641 15.8185 33.9641 14.3887 35.3645C12.4007 37.3036 12.2636 37.7345 12.2636 41.8575V44.6779H11.627H10.9904V36.1578V27.6376H26.0721H41.1537V36.1578ZM27.1101 32.0152C28.3049 33.1219 28.9023 33.9543 29.2745 34.9826L29.5389 35.7171L29.578 40.1926L29.6074 44.6779H26.0721H22.5367L22.5661 40.1926C22.5955 35.7954 22.6052 35.7073 22.8207 35.0805C23.2222 33.9543 23.6042 33.4255 24.8381 32.2209C25.4943 31.5843 26.0329 31.0653 26.0525 31.0653C26.0721 31.0653 26.5519 31.4962 27.1101 32.0152ZM17.6205 37.9108L17.8947 38.4592L17.9241 41.5637L17.9535 44.6779H15.7891H13.6248L13.6542 41.6616L13.6836 38.6551L13.997 37.9891C14.232 37.4995 14.5062 37.1469 15.0742 36.5985L15.8381 35.8738L16.5922 36.6181C17.0329 37.0588 17.454 37.5778 17.6205 37.9108ZM37.5693 37.0783C37.7162 37.2448 37.9807 37.6659 38.1569 38.0185L38.4605 38.6551L38.4899 41.6616L38.5193 44.6779H36.355H34.1907L34.22 41.5734C34.2592 37.8716 34.2298 37.9793 35.4932 36.6866L36.2864 35.864L36.7859 36.3145C37.0601 36.5691 37.4127 36.9021 37.5693 37.0783Z"/>
</mask>
<path d="M25.651 1.21544C25.3767 1.48965 23.6629 4.55494 23.4083 5.24047C23.1243 5.97496 23.0753 7.07181 23.281 7.85527C23.3691 8.20783 23.4573 8.55059 23.4573 8.61914C23.4671 8.69749 23.1439 8.88356 22.6444 9.06963C20.7347 9.80413 19.3343 10.6757 17.9535 12.0076C16.7978 13.1338 16.1907 13.9369 15.6422 15.0533C15.0253 16.346 14.8588 17.0609 14.8686 18.5789C14.8686 20.0675 15.0546 20.8999 15.6912 22.1534C15.9067 22.5843 16.0829 22.9565 16.0829 22.9858C16.0829 23.0152 15.7108 23.0348 15.2505 23.0348C14.0362 23.0348 14.0264 23.0446 14.0264 24.8466V26.2666H12.5084H10.9904V24.0631V21.8596H11.9208C13.3115 21.8596 13.2429 22.0065 13.2429 19.1371C13.2429 16.2383 13.3604 16.4342 11.6368 16.395L10.442 16.3558L10.7162 15.5626C11.1276 14.3384 11.059 13.2709 10.5008 12.1643C10.3833 11.9195 9.73691 11.1752 9.07097 10.4995L7.8664 9.27529L7.83702 7.94341C7.80764 6.7878 7.77826 6.57235 7.62157 6.39608C7.39633 6.15125 7.00459 6.13166 6.701 6.34711C6.49535 6.48421 6.48555 6.56256 6.48555 7.82589V9.16756L5.23202 10.4407C3.87075 11.8313 3.56716 12.3112 3.35171 13.408C3.18523 14.2601 3.32233 15.1317 3.78261 16.1991C3.85117 16.346 3.73365 16.3656 2.61722 16.395C0.893604 16.4342 1.00133 16.2579 1.00133 19.1567C1.00133 21.4091 1.00133 21.4385 1.22657 21.6442C1.42244 21.8302 1.56934 21.8596 2.3528 21.8596H3.25378L3.27337 33.7584C3.30274 45.0207 3.31254 45.6572 3.47902 45.8237C3.64551 45.9902 4.68359 46 26.0721 46C47.4605 46 48.4986 45.9902 48.6651 45.8237C48.8316 45.6572 48.8414 45.0207 48.8708 33.7584L48.8903 21.8596H49.8011C51.1918 21.8596 51.1428 21.9576 51.1428 19.1469C51.1428 16.2579 51.2505 16.4342 49.5269 16.395C48.4105 16.3656 48.293 16.346 48.3615 16.1991C48.8218 15.1317 48.9589 14.2601 48.7924 13.408C48.577 12.3112 48.2734 11.8313 46.9121 10.4407L45.6586 9.16756V7.82589C45.6586 6.56256 45.6488 6.48421 45.4431 6.34711C45.1395 6.13166 44.7478 6.15125 44.5226 6.39608C44.3659 6.57235 44.3365 6.7878 44.3071 7.94341L44.2777 9.27529L43.0732 10.4995C42.4072 11.1752 41.7609 11.9195 41.6433 12.1643C41.0264 13.3787 41.0068 14.6616 41.5748 16.0033L41.7217 16.3558L40.5171 16.395C38.7837 16.4342 38.9012 16.2383 38.9012 19.1371C38.9012 22.0065 38.8327 21.8596 40.2233 21.8596H41.1537V24.0631V26.2666H39.6357H38.1178V24.8466C38.1178 23.0446 38.108 23.0348 36.8936 23.0348C36.4333 23.0348 36.0612 23.0152 36.0612 22.9858C36.0612 22.9565 36.2375 22.5745 36.4627 22.1436C37.0699 20.9195 37.2658 20.087 37.2755 18.5789C37.2755 17.0609 37.1189 16.346 36.5019 15.0533C35.9535 13.9369 35.3463 13.1338 34.1907 12.0076C32.8098 10.6757 31.2429 9.6964 29.4116 9.02067C28.9611 8.86398 28.6771 8.69749 28.6869 8.61914C28.6869 8.55059 28.775 8.20783 28.8631 7.85527C29.0688 7.07181 29.0198 5.97496 28.7358 5.24047C28.4812 4.55494 26.7674 1.48965 26.4932 1.21544C26.3757 1.09792 26.1896 0.999992 26.0721 0.999992C25.9643 0.999992 25.7685 1.09792 25.651 1.21544ZM26.7772 4.35908C27.4823 5.66158 27.639 6.10228 27.639 6.7878C27.639 7.2383 27.3941 8.247 27.2766 8.247C27.2473 8.247 26.9632 8.14907 26.6401 8.04134L26.0721 7.82589L25.5236 8.04134C25.22 8.14907 24.936 8.247 24.8871 8.247C24.7598 8.247 24.5051 7.28726 24.5051 6.7878C24.5051 6.54297 24.5541 6.16104 24.6129 5.94558C24.7206 5.56365 25.9741 3.15451 26.0721 3.15451C26.1014 3.15451 26.4148 3.69314 26.7772 4.35908ZM27.9524 9.97061C28.9415 10.3232 30.0971 10.7932 30.528 11.0185C32.5944 12.0957 34.6412 14.123 35.3659 15.827C35.973 17.2176 36.0906 19.0588 35.6792 20.3906C35.4148 21.2622 35.0819 21.938 34.6216 22.5647L34.2788 23.0348H26.0721H17.8653L17.5128 22.5549C16.1613 20.7138 15.8381 18.2753 16.6705 16.1208C17.3757 14.2601 19.3735 12.1937 21.5574 11.0479C22.2331 10.6953 25.7685 9.33405 26.0427 9.32426C26.1112 9.32426 26.973 9.61806 27.9524 9.97061ZM9.4725 13.2905C9.68795 14.025 9.62919 14.6322 9.24725 15.5919L8.95345 16.3264L7.1417 16.3558L5.32995 16.3754L5.00677 15.5724C4.76194 14.9652 4.6738 14.6028 4.6738 14.1719C4.6738 13.1828 4.90884 12.7421 6.08403 11.5473L7.12211 10.4897L8.21896 11.6061C9.19828 12.605 9.3256 12.7813 9.4725 13.2905ZM47.2451 12.9869C47.578 13.7606 47.5487 14.5637 47.1374 15.5724L46.8142 16.3754L44.9926 16.3558L43.1809 16.3264L42.8577 15.494C42.4856 14.5539 42.4464 14.025 42.6814 13.2318C42.8185 12.7715 42.985 12.556 43.9252 11.5963L45.0122 10.4995L46.0209 11.4984C46.7162 12.1839 47.0884 12.6442 47.2451 12.9869ZM11.8718 19.1175V20.4886H7.12211H2.37239V19.1175V17.7465H7.12211H11.8718V19.1175ZM49.7717 19.1175V20.4886H45.022H40.2723V19.1175V17.7465H45.022H49.7717V19.1175ZM9.61939 33.2688V44.6779H7.12211H4.62483V33.2688V21.8596H7.12211H9.61939V33.2688ZM47.5193 33.2688V44.6779H45.022H42.5247V33.2688V21.8596H45.022H47.5193V33.2688ZM36.7467 25.3362V26.2666H26.0721H15.3974V25.3362V24.4059H26.0721H36.7467V25.3362ZM41.1537 36.1578V44.6779H40.5269H39.8903L39.861 41.5734C39.8218 38.6551 39.8022 38.42 39.6063 37.8814C39.2734 36.9902 38.8914 36.4712 37.7358 35.3449C36.3256 33.9641 36.3648 33.9739 34.9937 35.2568C33.8479 36.3145 33.3191 37.0588 33.0057 38.0087C32.8196 38.5963 32.8 38.9391 32.7511 41.6616L32.7119 44.6779H31.8403H30.9785L30.9491 40.1436C30.9001 35.0903 30.9099 35.1197 30.1852 33.6605C29.9796 33.2296 29.6172 32.6518 29.392 32.3874C28.7946 31.6627 26.454 29.4984 26.1896 29.4396C25.9056 29.3613 25.7587 29.469 24.3387 30.8009C22.8403 32.2013 22.4388 32.6812 21.9589 33.6605C21.2342 35.1197 21.244 35.0903 21.195 40.1436L21.1656 44.6779H20.3038H19.4322L19.3931 41.6616C19.3441 38.9391 19.3245 38.5963 19.1384 38.0087C18.8251 37.0588 18.2962 36.3145 17.1504 35.2568C15.7696 33.9641 15.8185 33.9641 14.3887 35.3645C12.4007 37.3036 12.2636 37.7345 12.2636 41.8575V44.6779H11.627H10.9904V36.1578V27.6376H26.0721H41.1537V36.1578ZM27.1101 32.0152C28.3049 33.1219 28.9023 33.9543 29.2745 34.9826L29.5389 35.7171L29.578 40.1926L29.6074 44.6779H26.0721H22.5367L22.5661 40.1926C22.5955 35.7954 22.6052 35.7073 22.8207 35.0805C23.2222 33.9543 23.6042 33.4255 24.8381 32.2209C25.4943 31.5843 26.0329 31.0653 26.0525 31.0653C26.0721 31.0653 26.5519 31.4962 27.1101 32.0152ZM17.6205 37.9108L17.8947 38.4592L17.9241 41.5637L17.9535 44.6779H15.7891H13.6248L13.6542 41.6616L13.6836 38.6551L13.997 37.9891C14.232 37.4995 14.5062 37.1469 15.0742 36.5985L15.8381 35.8738L16.5922 36.6181C17.0329 37.0588 17.454 37.5778 17.6205 37.9108ZM37.5693 37.0783C37.7162 37.2448 37.9807 37.6659 38.1569 38.0185L38.4605 38.6551L38.4899 41.6616L38.5193 44.6779H36.355H34.1907L34.22 41.5734C34.2592 37.8716 34.2298 37.9793 35.4932 36.6866L36.2864 35.864L36.7859 36.3145C37.0601 36.5691 37.4127 36.9021 37.5693 37.0783Z" fill="#00BFFF"/>
<path d="M25.651 1.21544C25.3767 1.48965 23.6629 4.55494 23.4083 5.24047C23.1243 5.97496 23.0753 7.07181 23.281 7.85527C23.3691 8.20783 23.4573 8.55059 23.4573 8.61914C23.4671 8.69749 23.1439 8.88356 22.6444 9.06963C20.7347 9.80413 19.3343 10.6757 17.9535 12.0076C16.7978 13.1338 16.1907 13.9369 15.6422 15.0533C15.0253 16.346 14.8588 17.0609 14.8686 18.5789C14.8686 20.0675 15.0546 20.8999 15.6912 22.1534C15.9067 22.5843 16.0829 22.9565 16.0829 22.9858C16.0829 23.0152 15.7108 23.0348 15.2505 23.0348C14.0362 23.0348 14.0264 23.0446 14.0264 24.8466V26.2666H12.5084H10.9904V24.0631V21.8596H11.9208C13.3115 21.8596 13.2429 22.0065 13.2429 19.1371C13.2429 16.2383 13.3604 16.4342 11.6368 16.395L10.442 16.3558L10.7162 15.5626C11.1276 14.3384 11.059 13.2709 10.5008 12.1643C10.3833 11.9195 9.73691 11.1752 9.07097 10.4995L7.8664 9.27529L7.83702 7.94341C7.80764 6.7878 7.77826 6.57235 7.62157 6.39608C7.39633 6.15125 7.00459 6.13166 6.701 6.34711C6.49535 6.48421 6.48555 6.56256 6.48555 7.82589V9.16756L5.23202 10.4407C3.87075 11.8313 3.56716 12.3112 3.35171 13.408C3.18523 14.2601 3.32233 15.1317 3.78261 16.1991C3.85117 16.346 3.73365 16.3656 2.61722 16.395C0.893604 16.4342 1.00133 16.2579 1.00133 19.1567C1.00133 21.4091 1.00133 21.4385 1.22657 21.6442C1.42244 21.8302 1.56934 21.8596 2.3528 21.8596H3.25378L3.27337 33.7584C3.30274 45.0207 3.31254 45.6572 3.47902 45.8237C3.64551 45.9902 4.68359 46 26.0721 46C47.4605 46 48.4986 45.9902 48.6651 45.8237C48.8316 45.6572 48.8414 45.0207 48.8708 33.7584L48.8903 21.8596H49.8011C51.1918 21.8596 51.1428 21.9576 51.1428 19.1469C51.1428 16.2579 51.2505 16.4342 49.5269 16.395C48.4105 16.3656 48.293 16.346 48.3615 16.1991C48.8218 15.1317 48.9589 14.2601 48.7924 13.408C48.577 12.3112 48.2734 11.8313 46.9121 10.4407L45.6586 9.16756V7.82589C45.6586 6.56256 45.6488 6.48421 45.4431 6.34711C45.1395 6.13166 44.7478 6.15125 44.5226 6.39608C44.3659 6.57235 44.3365 6.7878 44.3071 7.94341L44.2777 9.27529L43.0732 10.4995C42.4072 11.1752 41.7609 11.9195 41.6433 12.1643C41.0264 13.3787 41.0068 14.6616 41.5748 16.0033L41.7217 16.3558L40.5171 16.395C38.7837 16.4342 38.9012 16.2383 38.9012 19.1371C38.9012 22.0065 38.8327 21.8596 40.2233 21.8596H41.1537V24.0631V26.2666H39.6357H38.1178V24.8466C38.1178 23.0446 38.108 23.0348 36.8936 23.0348C36.4333 23.0348 36.0612 23.0152 36.0612 22.9858C36.0612 22.9565 36.2375 22.5745 36.4627 22.1436C37.0699 20.9195 37.2658 20.087 37.2755 18.5789C37.2755 17.0609 37.1189 16.346 36.5019 15.0533C35.9535 13.9369 35.3463 13.1338 34.1907 12.0076C32.8098 10.6757 31.2429 9.6964 29.4116 9.02067C28.9611 8.86398 28.6771 8.69749 28.6869 8.61914C28.6869 8.55059 28.775 8.20783 28.8631 7.85527C29.0688 7.07181 29.0198 5.97496 28.7358 5.24047C28.4812 4.55494 26.7674 1.48965 26.4932 1.21544C26.3757 1.09792 26.1896 0.999992 26.0721 0.999992C25.9643 0.999992 25.7685 1.09792 25.651 1.21544ZM26.7772 4.35908C27.4823 5.66158 27.639 6.10228 27.639 6.7878C27.639 7.2383 27.3941 8.247 27.2766 8.247C27.2473 8.247 26.9632 8.14907 26.6401 8.04134L26.0721 7.82589L25.5236 8.04134C25.22 8.14907 24.936 8.247 24.8871 8.247C24.7598 8.247 24.5051 7.28726 24.5051 6.7878C24.5051 6.54297 24.5541 6.16104 24.6129 5.94558C24.7206 5.56365 25.9741 3.15451 26.0721 3.15451C26.1014 3.15451 26.4148 3.69314 26.7772 4.35908ZM27.9524 9.97061C28.9415 10.3232 30.0971 10.7932 30.528 11.0185C32.5944 12.0957 34.6412 14.123 35.3659 15.827C35.973 17.2176 36.0906 19.0588 35.6792 20.3906C35.4148 21.2622 35.0819 21.938 34.6216 22.5647L34.2788 23.0348H26.0721H17.8653L17.5128 22.5549C16.1613 20.7138 15.8381 18.2753 16.6705 16.1208C17.3757 14.2601 19.3735 12.1937 21.5574 11.0479C22.2331 10.6953 25.7685 9.33405 26.0427 9.32426C26.1112 9.32426 26.973 9.61806 27.9524 9.97061ZM9.4725 13.2905C9.68795 14.025 9.62919 14.6322 9.24725 15.5919L8.95345 16.3264L7.1417 16.3558L5.32995 16.3754L5.00677 15.5724C4.76194 14.9652 4.6738 14.6028 4.6738 14.1719C4.6738 13.1828 4.90884 12.7421 6.08403 11.5473L7.12211 10.4897L8.21896 11.6061C9.19828 12.605 9.3256 12.7813 9.4725 13.2905ZM47.2451 12.9869C47.578 13.7606 47.5487 14.5637 47.1374 15.5724L46.8142 16.3754L44.9926 16.3558L43.1809 16.3264L42.8577 15.494C42.4856 14.5539 42.4464 14.025 42.6814 13.2318C42.8185 12.7715 42.985 12.556 43.9252 11.5963L45.0122 10.4995L46.0209 11.4984C46.7162 12.1839 47.0884 12.6442 47.2451 12.9869ZM11.8718 19.1175V20.4886H7.12211H2.37239V19.1175V17.7465H7.12211H11.8718V19.1175ZM49.7717 19.1175V20.4886H45.022H40.2723V19.1175V17.7465H45.022H49.7717V19.1175ZM9.61939 33.2688V44.6779H7.12211H4.62483V33.2688V21.8596H7.12211H9.61939V33.2688ZM47.5193 33.2688V44.6779H45.022H42.5247V33.2688V21.8596H45.022H47.5193V33.2688ZM36.7467 25.3362V26.2666H26.0721H15.3974V25.3362V24.4059H26.0721H36.7467V25.3362ZM41.1537 36.1578V44.6779H40.5269H39.8903L39.861 41.5734C39.8218 38.6551 39.8022 38.42 39.6063 37.8814C39.2734 36.9902 38.8914 36.4712 37.7358 35.3449C36.3256 33.9641 36.3648 33.9739 34.9937 35.2568C33.8479 36.3145 33.3191 37.0588 33.0057 38.0087C32.8196 38.5963 32.8 38.9391 32.7511 41.6616L32.7119 44.6779H31.8403H30.9785L30.9491 40.1436C30.9001 35.0903 30.9099 35.1197 30.1852 33.6605C29.9796 33.2296 29.6172 32.6518 29.392 32.3874C28.7946 31.6627 26.454 29.4984 26.1896 29.4396C25.9056 29.3613 25.7587 29.469 24.3387 30.8009C22.8403 32.2013 22.4388 32.6812 21.9589 33.6605C21.2342 35.1197 21.244 35.0903 21.195 40.1436L21.1656 44.6779H20.3038H19.4322L19.3931 41.6616C19.3441 38.9391 19.3245 38.5963 19.1384 38.0087C18.8251 37.0588 18.2962 36.3145 17.1504 35.2568C15.7696 33.9641 15.8185 33.9641 14.3887 35.3645C12.4007 37.3036 12.2636 37.7345 12.2636 41.8575V44.6779H11.627H10.9904V36.1578V27.6376H26.0721H41.1537V36.1578ZM27.1101 32.0152C28.3049 33.1219 28.9023 33.9543 29.2745 34.9826L29.5389 35.7171L29.578 40.1926L29.6074 44.6779H26.0721H22.5367L22.5661 40.1926C22.5955 35.7954 22.6052 35.7073 22.8207 35.0805C23.2222 33.9543 23.6042 33.4255 24.8381 32.2209C25.4943 31.5843 26.0329 31.0653 26.0525 31.0653C26.0721 31.0653 26.5519 31.4962 27.1101 32.0152ZM17.6205 37.9108L17.8947 38.4592L17.9241 41.5637L17.9535 44.6779H15.7891H13.6248L13.6542 41.6616L13.6836 38.6551L13.997 37.9891C14.232 37.4995 14.5062 37.1469 15.0742 36.5985L15.8381 35.8738L16.5922 36.6181C17.0329 37.0588 17.454 37.5778 17.6205 37.9108ZM37.5693 37.0783C37.7162 37.2448 37.9807 37.6659 38.1569 38.0185L38.4605 38.6551L38.4899 41.6616L38.5193 44.6779H36.355H34.1907L34.22 41.5734C34.2592 37.8716 34.2298 37.9793 35.4932 36.6866L36.2864 35.864L36.7859 36.3145C37.0601 36.5691 37.4127 36.9021 37.5693 37.0783Z" stroke="#00BFFF" stroke-width="0.4" mask="url(#path-1-outside-1_2_547)"/>
<path d="M27.3392 12.9032C27.2781 12.7362 27.2732 12.5473 27.3128 12.3821C27.352 12.2186 27.439 12.0625 27.5783 11.9802L27.5786 11.98C27.7474 11.8811 27.9568 11.8577 28.211 11.8964C28.4647 11.9351 28.7725 12.0369 29.1478 12.1998C30.5634 12.8136 31.8881 13.8224 32.9258 15.0676L32.9259 15.0677C33.1921 15.3881 33.3579 15.6563 33.4072 15.8961C33.4324 16.0187 33.4274 16.1345 33.3898 16.2449C33.3525 16.3545 33.285 16.4528 33.1939 16.544C33.092 16.6458 32.9885 16.7259 32.8712 16.7613C32.7491 16.7982 32.6257 16.7831 32.4936 16.7219C32.3647 16.6623 32.2236 16.5572 32.059 16.4083C31.8937 16.2587 31.6992 16.0598 31.4639 15.8074C30.4929 14.7879 29.456 14.0422 28.2457 13.5194L28.2453 13.5192C27.9751 13.4013 27.7706 13.3007 27.6251 13.2067C27.4823 13.1145 27.3802 13.0186 27.3392 12.9032ZM27.3392 12.9032C27.3393 12.9034 27.3393 12.9036 27.3394 12.9038L27.4333 12.8693L27.339 12.9026C27.3391 12.9028 27.3391 12.903 27.3392 12.9032Z" fill="#00BFFF" stroke="#00BFFF" stroke-width="0.2"/>
</svg>
