<svg width="348" height="263" viewBox="0 0 348 263" fill="none" xmlns="http://www.w3.org/2000/svg">
<path d="M30.8947 240.329C10.7927 219.292 0 195.697 0 157.45C0 90.1472 47.9522 29.8247 117.685 0L135.113 26.4981C70.0255 61.1878 57.3007 106.204 52.2264 134.586C62.7068 129.241 76.4269 127.375 89.8738 128.606C125.082 131.817 152.834 160.296 152.834 195.697C152.834 213.547 145.638 230.666 132.827 243.287C120.017 255.909 102.643 263 84.5263 263C63.585 263 43.561 253.578 30.8947 240.329ZM226.06 240.329C205.958 219.292 195.166 195.697 195.166 157.45C195.166 90.1472 243.118 29.8247 312.851 0L330.279 26.4981C265.191 61.1878 252.466 106.204 247.392 134.586C257.872 129.241 271.593 127.375 285.04 128.606C320.247 131.817 348 160.296 348 195.697C348 213.547 340.803 230.666 327.993 243.287C315.183 255.909 297.808 263 279.692 263C258.751 263 238.727 253.578 226.06 240.329Z" fill="#00BFFF" fill-opacity="0.1"/>
</svg>
